<svg width="56" height="17" viewBox="0 0 56 17" fill="none" xmlns="http://www.w3.org/2000/svg">
<g id="Frame 1">
<path id="Polygon 1" d="M48.0455 0.545456L48.877 0.589032L49.6993 0.719282L50.5036 0.93478L51.2809 1.23316L52.0228 1.61116L52.7211 2.06464L53.3681 2.58862L53.9569 3.17737L54.4809 3.82444L54.9343 4.52273L55.3123 5.2646L55.6107 6.04191L55.8262 6.84616L55.9565 7.66853L56 8.5L55.9565 9.33148L55.8262 10.1538L55.6107 10.9581L55.3123 11.7354L54.9343 12.4773L54.4809 13.1756L53.9569 13.8226L53.3681 14.4114L52.7211 14.9354L52.0228 15.3888L51.2809 15.7668L50.5036 16.0652L49.6993 16.2807L48.877 16.411L48.0455 16.4545L47.214 16.411L46.3916 16.2807L45.5874 16.0652L44.8101 15.7668L44.0682 15.3888L43.3699 14.9354L42.7229 14.4114L42.1341 13.8226L41.6101 13.1756L41.1566 12.4773L40.7786 11.7354L40.4803 10.9581L40.2648 10.1538L40.1345 9.33148L40.0909 8.5L40.1345 7.66852L40.2648 6.84616L40.4803 6.04191L40.7786 5.2646L41.1566 4.52273L41.6101 3.82444L42.1341 3.17737L42.7229 2.58862L43.3699 2.06464L44.0682 1.61116L44.8101 1.23316L45.5874 0.934779L46.3916 0.719282L47.214 0.589032L48.0455 0.545456Z" fill="#78290F"/>
<path id="Polygon 2" d="M28 0.545456L28.8648 0.589032L29.72 0.719282L30.5564 0.93478L31.3648 1.23316L32.1364 1.61116L32.8626 2.06464L33.5356 2.58862L34.1479 3.17737L34.6928 3.82444L35.1644 4.52273L35.5575 5.2646L35.8679 6.04191L36.092 6.84616L36.2274 7.66853L36.2728 8.5L36.2274 9.33148L36.092 10.1538L35.8679 10.9581L35.5575 11.7354L35.1644 12.4773L34.6928 13.1756L34.1479 13.8226L33.5356 14.4114L32.8626 14.9354L32.1364 15.3888L31.3648 15.7668L30.5564 16.0652L29.72 16.2807L28.8648 16.411L28 16.4545L27.1353 16.411L26.28 16.2807L25.4436 16.0652L24.6352 15.7668L23.8637 15.3888L23.1374 14.9354L22.4645 14.4114L21.8522 13.8226L21.3072 13.1756L20.8356 12.4773L20.4425 11.7354L20.1322 10.9581L19.9081 10.1538L19.7726 9.33148L19.7273 8.5L19.7726 7.66852L19.9081 6.84616L20.1322 6.04191L20.4425 5.2646L20.8356 4.52273L21.3072 3.82444L21.8522 3.17737L22.4645 2.58862L23.1374 2.06464L23.8637 1.61116L24.6352 1.23316L25.4436 0.934779L26.28 0.719282L27.1353 0.589032L28 0.545456Z" fill="#001524"/>
<path id="Polygon 3" d="M7.95455 0.545472L8.78602 0.589047L9.60839 0.719297L10.4126 0.934795L11.19 1.23318L11.9318 1.61118L12.6301 2.06465L13.2772 2.58864L13.8659 3.17739L14.3899 3.82445L14.8434 4.52274L15.2214 5.26461L15.5198 6.04193L15.7353 6.84617L15.8655 7.66854L15.9091 8.50002L15.8655 9.33149L15.7353 10.1539L15.5198 10.9581L15.2214 11.7354L14.8434 12.4773L14.3899 13.1756L13.8659 13.8226L13.2772 14.4114L12.6301 14.9354L11.9318 15.3889L11.19 15.7669L10.4126 16.0652L9.60839 16.2807L8.78602 16.411L7.95455 16.4546L7.12307 16.411L6.3007 16.2807L5.49646 16.0652L4.71914 15.7669L3.97727 15.3889L3.27898 14.9354L2.63191 14.4114L2.04317 13.8226L1.51918 13.1756L1.06571 12.4773L0.687706 11.7354L0.389323 10.9581L0.173825 10.1539L0.0435753 9.33149L-4.42561e-07 8.50002L0.0435754 7.66854L0.173825 6.84617L0.389323 6.04193L0.687706 5.26461L1.06571 4.52274L1.51918 3.82445L2.04317 3.17739L2.63192 2.58864L3.27898 2.06465L3.97727 1.61118L4.71914 1.23318L5.49646 0.934795L6.3007 0.719297L7.12307 0.589047L7.95455 0.545472Z" fill="#15616D"/>
</g>
</svg>
